<svg width="22" height="22" viewBox="0 0 22 22" fill="none" xmlns="http://www.w3.org/2000/svg">
<path d="M6.75 5.5C6.05964 5.5 5.5 6.05964 5.5 6.75C5.5 7.44036 6.05964 8 6.75 8C7.44036 8 8 7.44036 8 6.75C8 6.05964 7.44036 5.5 6.75 5.5Z" fill="#1F2328"/>
<path fill-rule="evenodd" clip-rule="evenodd" d="M1.5 0C0.671573 0 0 0.671573 0 1.5V9.93934C0 10.3372 0.158035 10.7187 0.43934 11L10.6893 21.25C11.2751 21.8358 12.2249 21.8358 12.8107 21.25L21.25 12.8107C21.8358 12.2249 21.8358 11.2751 21.25 10.6893L11 0.43934C10.7187 0.158035 10.3372 0 9.93934 0H1.5ZM1.5 1.5H9.93934L20.1893 11.75L11.75 20.1893L1.5 9.93934V1.5Z" fill="#1F2328"/>
</svg>
